<?xml version="1.0" encoding="iso-8859-1"?>
<!-- Generator: Adobe Illustrator 19.0.0, SVG Export Plug-In . SVG Version: 6.00 Build 0)  -->
<svg xmlns="http://www.w3.org/2000/svg" xmlns:xlink="http://www.w3.org/1999/xlink" version="1.1" id="Capa_1" x="0px" y="0px" viewBox="0 0 511.999 511.999" style="enable-background:new 0 0 511.999 511.999;" xml:space="preserve" width="512px" height="512px">
<g>
	<g>
		<path d="M511.999,256.016c-0.001-52.472-16.366-104.119-46.288-146.839c5.539-7.624,8.536-16.764,8.536-26.37    c0-12.018-4.68-23.317-13.179-31.815c-15.824-15.823-40.599-17.367-58.177-4.641C360.378,16.577,309.086,0.228,256.856,0.063    c-0.269,0-0.531-0.001-0.799-0.001c-52.501,0-104.121,16.352-146.859,46.29c-17.579-12.729-42.356-11.186-58.181,4.64    c-15.821,15.821-17.367,40.588-4.649,58.166c-61.879,88.088-61.769,205.776,0.004,293.714    c-12.722,17.578-11.177,42.349,4.646,58.172c8.771,8.773,20.291,13.157,31.814,13.157c9.26,0,18.522-2.842,26.355-8.51    c43.92,30.831,95.38,46.245,146.855,46.245c51.471,0,102.952-15.423,146.861-46.244c7.833,5.667,17.091,8.508,26.354,8.508    c11.521,0,23.043-4.386,31.814-13.157c8.499-8.499,13.179-19.797,13.179-31.815c0-9.605-2.997-18.746-8.537-26.37    C495.635,360.139,512,308.49,511.999,256.016z M418.65,72.202c2.924-2.923,6.764-4.385,10.604-4.385s7.682,1.462,10.604,4.386    c2.833,2.833,4.393,6.599,4.393,10.604c0,4.006-1.561,7.772-4.393,10.605l-91.909,91.909c-2.833,2.833-6.6,4.393-10.604,4.393    c-4.006,0-7.772-1.561-10.603-4.392h-0.001c-2.833-2.833-4.393-6.599-4.393-10.605c0-4.005,1.561-7.772,4.393-10.604    L418.65,72.202z M294.956,352.472c-24.931,10.062-52.898,10.062-77.828,0c1.711-4.797,2.603-9.904,2.603-15.148    c0-12.018-4.68-23.317-13.179-31.815c-8.498-8.499-19.797-13.179-31.815-13.179c-5.246,0-10.355,0.893-15.154,2.605    c-10.015-24.855-10.054-52.858,0.01-77.827c4.796,1.71,9.901,2.602,15.143,2.602c12.018,0,23.317-4.68,31.815-13.179    c8.499-8.498,13.179-19.797,13.179-31.815c0-5.237-0.89-10.336-2.596-15.128c24.848-9.968,52.93-9.988,77.814-0.001    c-1.706,4.791-2.597,9.891-2.597,15.128c0,12.018,4.68,23.317,13.178,31.814c8.498,8.499,19.797,13.179,31.815,13.179    c5.241,0,10.345-0.891,15.139-2.601c9.949,24.823,9.952,52.98-0.007,77.82c-4.793-1.708-9.894-2.598-15.133-2.598    c-12.019,0-23.317,4.68-31.814,13.179c-8.499,8.498-13.179,19.797-13.179,31.815C292.354,342.567,293.246,347.674,294.956,352.472    z M256.055,30.057c0.234,0,0.472,0,0.707,0.001c44.148,0.139,87.529,13.365,124.067,37.547l-67.351,67.351    c-36.196-17.118-78.721-17.059-114.855,0.017L131.26,67.609C168.003,43.286,211.665,30.057,256.055,30.057z M72.226,72.202    c2.924-2.923,6.765-4.385,10.604-4.385c3.84,0,7.682,1.462,10.605,4.385l91.909,91.91c2.833,2.833,4.393,6.599,4.393,10.604    c0,4.006-1.561,7.772-4.393,10.605c-5.848,5.848-15.362,5.848-21.21,0l-91.908-91.91C66.378,87.564,66.378,78.049,72.226,72.202z     M67.616,131.221l67.366,67.366c-17.245,36.353-17.15,78.711-0.003,114.869l-67.358,67.357    C17.489,305.372,17.402,206.781,67.616,131.221z M93.435,439.835c-5.848,5.848-15.362,5.848-21.209,0    c-5.847-5.848-5.847-15.362,0-21.209l91.909-91.909c2.924-2.924,6.765-4.385,10.605-4.385s7.682,1.462,10.605,4.385    c2.833,2.833,4.393,6.599,4.393,10.605c0,4.005-1.561,7.772-4.393,10.604L93.435,439.835z M131.246,444.444l67.365-67.365    c18.145,8.615,37.783,12.939,57.432,12.939c19.645,0,39.288-4.325,57.432-12.94l67.362,67.363    C305.488,494.457,206.613,494.471,131.246,444.444z M439.859,439.835c-5.848,5.848-15.361,5.848-21.209,0.001l-91.909-91.91    c-2.833-2.833-4.393-6.599-4.393-10.604c0-4.006,1.561-7.772,4.394-10.605c2.832-2.833,6.598-4.392,10.603-4.392    c4.005,0,7.772,1.561,10.604,4.393l91.909,91.909c2.833,2.833,4.393,6.599,4.393,10.605    C444.252,433.236,442.692,437.003,439.859,439.835z M444.452,380.801l-67.347-67.347c8.553-18.048,13.006-37.963,12.912-58.059    c-0.091-19.679-4.536-39.144-12.909-56.814l67.344-67.344c24.309,36.73,37.551,80.415,37.552,124.779    C482.004,300.382,468.762,344.069,444.452,380.801z" fill="#FFFFFF"/>
	</g>
</g>
<g>
</g>
<g>
</g>
<g>
</g>
<g>
</g>
<g>
</g>
<g>
</g>
<g>
</g>
<g>
</g>
<g>
</g>
<g>
</g>
<g>
</g>
<g>
</g>
<g>
</g>
<g>
</g>
<g>
</g>
</svg>
